<svg xmlns="http://www.w3.org/2000/svg" xmlns:xlink="http://www.w3.org/1999/xlink" width="1200" zoomAndPan="magnify" viewBox="0 0 900 599.999999" height="800" preserveAspectRatio="xMidYMid meet" version="1.0"><defs><clipPath id="f125dc99d8"><path d="M 37.742188 139.550781 L 900 139.550781 L 900 599.726562 L 37.742188 599.726562 Z M 37.742188 139.550781 " clip-rule="nonzero"/></clipPath><clipPath id="694a0da5c7"><path d="M 77.171875 174.878906 L 900 174.878906 L 900 599.726562 L 77.171875 599.726562 Z M 77.171875 174.878906 " clip-rule="nonzero"/></clipPath><clipPath id="989d6e02d0"><path d="M 202.417969 269.332031 L 900 269.332031 L 900 599.726562 L 202.417969 599.726562 Z M 202.417969 269.332031 " clip-rule="nonzero"/></clipPath></defs><g clip-path="url(#f125dc99d8)"><path fill="#ecf1f7" d="M 956.988281 139.628906 C 956.988281 139.628906 865.894531 176.898438 792.742188 280.421875 C 719.585938 382.566406 734.769531 492.992188 642.292969 537.164062 C 548.4375 582.714844 371.765625 477.808594 217.175781 510.9375 C 62.589844 545.445312 37.742188 600.660156 37.742188 600.660156 L 956.988281 600.660156 Z M 956.988281 139.628906 " fill-opacity="1" fill-rule="evenodd"/></g><g clip-path="url(#694a0da5c7)"><path fill="#e1eaf4" d="M 953.898438 174.949219 C 953.898438 174.949219 867.011719 210.46875 797.246094 309.140625 C 727.476562 406.492188 741.957031 511.742188 653.753906 553.84375 C 564.242188 597.253906 395.742188 497.269531 248.304688 528.84375 C 100.871094 561.738281 77.171875 614.359375 77.171875 614.359375 L 953.898438 614.359375 Z M 953.898438 174.949219 " fill-opacity="1" fill-rule="evenodd"/></g><g clip-path="url(#989d6e02d0)"><path fill="#d4e3f4" d="M 913.695312 269.382812 C 913.695312 269.382812 843.207031 298.226562 786.605469 378.339844 C 730 457.390625 741.75 542.847656 670.195312 577.03125 C 597.570312 612.28125 460.871094 531.097656 341.253906 556.734375 C 221.644531 583.4375 202.417969 626.167969 202.417969 626.167969 L 913.695312 626.167969 Z M 913.695312 269.382812 " fill-opacity="1" fill-rule="evenodd"/></g></svg>